PathFileType	4	(X/Y/Z)	C:/Users/opensim2020/Desktop/walking_exp_matlab/subject02_walking05_straight_01.trc	
DataRate	CameraRate	NumFrames	NumMarkers	Units	OrigDataRate	OrigDataStartFrame	OrigNumFrames	
100.00	100.00	5	42	mm	100.00	721	190	
Frame#	Time	LFHD			RFHD			LBHD			RBHD			C7			T10			CLAV			STRN			RBAK			LSHO			LUPA			LELB			LFRM			LWRA			LWRB			LFIN			RSHO			RUPA			RELB			RFRM			RWRA			RWRB			RFIN			LASI			RASI			LPSI			RPSI			LTHI			LKNE			LTIB			LANK			LHEE			LTOE			RTHI			RKNE			RTIB			RANK			RHEE			RTOE			*39			*40			*41			
		X1	Y1	Z1	X2	Y2	Z2	X3	Y3	Z3	X4	Y4	Z4	X5	Y5	Z5	X6	Y6	Z6	X7	Y7	Z7	X8	Y8	Z8	X9	Y9	Z9	X10	Y10	Z10	X11	Y11	Z11	X12	Y12	Z12	X13	Y13	Z13	X14	Y14	Z14	X15	Y15	Z15	X16	Y16	Z16	X17	Y17	Z17	X18	Y18	Z18	X19	Y19	Z19	X20	Y20	Z20	X21	Y21	Z21	X22	Y22	Z22	X23	Y23	Z23	X24	Y24	Z24	X25	Y25	Z25	X26	Y26	Z26	X27	Y27	Z27	X28	Y28	Z28	X29	Y29	Z29	X30	Y30	Z30	X31	Y31	Z31	X32	Y32	Z32	X33	Y33	Z33	X34	Y34	Z34	X35	Y35	Z35	X36	Y36	Z36	X37	Y37	Z37	X38	Y38	Z38	X39	Y39	Z39	X40	Y40	Z40	X41	Y41	Z41	X42	Y42	Z42	

72	0.710	-1151.40735	-498.07312	1738.68896	-1010.95856	-515.17755	1714.40063	-1179.19507	-627.06354	1664.44299	-1041.08813	-655.92230	1638.68359	-1112.72192	-689.83246	1523.81360	-1107.49573	-749.79065	1248.68958	-1120.43188	-552.68494	1450.45081	-1111.63635	-505.43231	1278.00781	-1050.62378	-754.90955	1351.16626	-1291.89575	-612.59430	1495.73694	-1387.44824	-614.30237	1297.61035	-1408.39502	-607.39868	1158.15613	-1427.13184	-584.43988	1029.22778	-1393.89929	-523.06946	907.74738	-1434.29309	-562.93616	908.43073	-1439.42871	-536.89856	847.56219	-924.68353	-616.27649	1486.48376	-841.34448	-650.79639	1297.17114	-819.20135	-632.81250	1151.01990	-801.75970	-586.39148	1038.62378	-820.83832	-513.42206	924.73730	-794.36578	-561.91534	910.08331	-789.69037	-513.02649	856.08636	-1239.67395	-515.27020	985.62408	-981.68335	-517.95142	978.12225	-1158.81042	-726.84393	1028.29504	-1044.07190	-733.66687	1026.85376	-1279.42651	-590.51508	672.81897	-1246.84692	-636.11224	472.87469	-1247.13037	-706.12854	289.84924	-1204.85388	-720.64893	67.89373	-1155.39844	-761.17993	41.19471	-1210.12170	-564.17798	30.90751	-893.38019	-526.25580	682.47144	-911.18073	-462.65567	488.32901	-914.66779	-537.00409	317.14682	-950.63953	-582.58618	130.13341	-1014.36084	-609.03271	76.38018	-903.01563	-453.25684	51.02488	-1071.65369	-610.11139	1800.57031	-3357.26147	2845.93140	1034.07275			 
73	0.720	-1151.50085	-489.26886	1737.98853	-1010.72943	-506.52985	1713.48987	-1178.70483	-617.85852	1663.82593	-1040.82153	-646.60956	1637.47571	-1113.05615	-681.04364	1523.23560	-1107.81921	-741.45502	1248.24768	-1120.59753	-543.97491	1449.65344	-1111.91125	-497.17453	1277.06616	-1051.14404	-746.59222	1350.73779	-1292.02405	-603.28882	1495.36023	-1388.15845	-602.76367	1297.64111	-1410.21094	-593.22198	1158.43762	-1428.48120	-567.50006	1029.90894	-1394.84473	-503.52539	909.81781	-1435.87122	-542.86359	909.59796	-1440.43054	-515.54462	849.36267	-925.04736	-607.84003	1485.51672	-841.93958	-643.33972	1296.17188	-819.58905	-627.14203	1150.44727	-801.63324	-581.37592	1037.47729	-819.91968	-509.50467	923.15771	-793.67480	-558.10547	908.85779	-788.54443	-509.92883	854.50116	-1240.22693	-507.88300	984.60205	-982.21313	-510.21887	977.45941	-1158.88623	-719.22766	1027.58716	-1044.46924	-725.46075	1025.87158	-1279.44275	-585.29089	671.97998	-1246.69824	-632.17145	472.31818	-1246.87952	-703.73572	289.77344	-1204.66809	-720.32635	68.10292	-1155.50232	-760.63837	41.29309	-1210.16101	-563.97577	30.79961	-894.27045	-516.42145	682.45740	-912.83472	-449.82965	488.44858	-914.45618	-517.35583	314.24338	-948.85437	-555.24988	125.20120	-1011.68555	-580.83423	70.76747	-902.28912	-422.06650	51.80585	-1071.40295	-601.31335	1799.60059	-3360.25391	2845.30200	1033.64087			 
74	0.730	-1151.10535	-480.15500	1737.20190	-1010.31750	-497.65671	1712.54333	-1179.01123	-608.93530	1663.26807	-1040.56934	-638.30634	1636.55603	-1113.30188	-672.19476	1522.51306	-1108.09094	-733.14545	1247.75122	-1120.66980	-535.22021	1448.81213	-1112.12207	-488.83975	1276.03967	-1051.64478	-737.57080	1349.80457	-1292.05383	-594.01965	1494.88086	-1388.59375	-591.23993	1297.45715	-1411.23303	-579.31012	1158.54504	-1429.94592	-550.42615	1030.63892	-1395.81946	-483.82144	912.32983	-1436.64514	-523.24518	910.98132	-1441.31567	-494.22491	851.42328	-925.15747	-599.72284	1484.58643	-842.37512	-636.57117	1295.63708	-819.95654	-620.91309	1149.56396	-801.41370	-576.41925	1036.37634	-818.91846	-505.28748	921.25006	-792.93073	-554.47101	907.50092	-787.48956	-506.82529	852.79547	-1240.64709	-500.54156	983.65271	-982.27179	-501.55981	977.28162	-1158.75024	-711.64001	1026.82043	-1044.56494	-717.48132	1025.04382	-1279.50488	-579.95081	671.14203	-1246.51794	-628.17273	471.73309	-1246.80176	-701.47931	290.07016	-1204.35205	-720.00757	68.22649	-1155.23596	-760.49066	41.75004	-1210.21753	-563.81372	30.75740	-894.98834	-506.40912	682.20648	-914.30841	-438.13815	488.56866	-914.18195	-497.89008	311.43674	-946.72137	-528.06543	120.71713	-1009.24219	-551.37726	64.79275	-901.61945	-391.04749	52.97614	-1070.95276	-592.32758	1798.82092	-3360.31836	2845.25024	1033.78687			 
75	0.740	-1150.21924	-470.94479	1736.32593	-1009.93829	-488.92609	1711.52930	-1178.33862	-599.69635	1662.27698	-1040.68311	-628.93872	1635.74023	-1113.36609	-663.32660	1521.80847	-1108.17773	-724.70337	1247.19189	-1120.52527	-526.49463	1447.83008	-1112.15967	-480.50684	1274.84424	-1051.94617	-728.95404	1349.29248	-1291.96509	-584.66125	1494.34583	-1389.03430	-579.78516	1297.49329	-1412.45215	-565.45099	1158.68262	-1430.90991	-533.59888	1031.39929	-1396.29797	-464.54608	914.51764	-1437.44482	-503.65244	912.34229	-1442.05359	-473.11237	853.57056	-925.25702	-591.29034	1483.39099	-842.57898	-628.65332	1294.68445	-820.09277	-615.65790	1148.87756	-801.08075	-571.99359	1035.40637	-817.94562	-501.17703	919.37897	-792.18481	-550.39203	906.24915	-786.37506	-503.86725	851.12299	-1241.02539	-493.17297	982.62640	-982.58600	-493.22220	976.74963	-1158.52271	-703.89032	1025.95813	-1044.47058	-709.60596	1024.31775	-1279.51355	-574.51343	670.18530	-1246.28540	-624.20984	471.15414	-1246.48059	-699.17841	290.26035	-1204.16907	-719.70209	68.67837	-1154.54980	-760.81500	42.57022	-1210.28003	-563.71130	30.70427	-895.73376	-496.67444	681.67334	-916.07507	-426.16125	488.25925	-913.86859	-478.24591	308.86462	-944.40289	-500.68457	116.82652	-1006.59753	-522.48932	59.55120	-901.04041	-360.34476	54.45343	-1070.59839	-583.40784	1797.86230	-3360.21777	2845.10815	1033.72449			 
76	0.750	-1150.02197	-462.08014	1735.55603	-1009.38763	-479.98441	1710.40271	-1178.59033	-590.70496	1661.52014	-1040.58728	-620.41467	1634.90125	-1113.42297	-654.40326	1520.98975	-1108.24084	-716.26257	1246.55115	-1120.28284	-517.68573	1446.68445	-1112.14502	-472.07162	1273.66760	-1052.24304	-721.22308	1348.68518	-1291.84705	-575.31427	1493.83044	-1389.21033	-568.34766	1297.29578	-1413.32043	-551.63666	1158.78186	-1431.58569	-516.87573	1032.10022	-1397.03320	-445.10556	917.14081	-1438.25635	-484.13635	913.83325	-1442.63879	-452.15903	855.97308	-925.08942	-582.64081	1482.50769	-842.75995	-622.21429	1293.78882	-820.26843	-609.16138	1147.80969	-800.68610	-566.56427	1033.78955	-816.95599	-497.01926	917.55066	-791.39459	-546.69519	904.75128	-785.19867	-500.13922	849.24426	-1241.36548	-485.77353	981.66943	-982.97510	-484.79526	976.07349	-1158.19885	-696.09814	1024.98621	-1044.35535	-701.22498	1023.37701	-1279.66797	-569.69061	669.23138	-1246.05627	-620.32257	470.65106	-1246.14661	-697.00824	290.46295	-1203.89722	-719.33179	69.04599	-1154.60754	-760.19244	42.77038	-1210.30017	-563.72729	30.66494	-896.31860	-487.15802	680.96228	-917.90009	-414.67117	487.87943	-913.27216	-459.34943	306.23172	-942.16742	-473.48456	113.20753	-1003.89764	-493.66306	54.96257	-900.60370	-329.86768	56.39630	-1070.03015	-574.39282	1796.77295	-3360.23193	2845.16138	1033.82263			 
